# AST/ASF file generated using VICON BodyLanguage
# -----------------------------------------------
:version 1.10
:name VICON
:units
  mass 1.0
  length 0.45
  angle deg
:documentation
   .ast/.asf automatically generated from VICON data using
   VICON BodyBuilder and BodyLanguage model FoxedUp or BRILLIANT.MOD
:root
   order TX TY TZ RX RY RZ
   axis XYZ
   position 0 0 0  
   orientation 0 0 0 
:bonedata
  begin
     id 1 
     name lhipjoint
     direction 0.734343 -0.627749 0.258209 
     length 2.5437 
     axis 0 0 0  XYZ
  end
  begin
     id 2 
     name lfemur
     direction 0.34202 -0.939693 0  
     length 6.7391  
     axis 0 0 20  XYZ
    dof rx ry rz
    limits (-160.0 20.0)
           (-70.0 70.0)
           (-60.0 70.0)
  end
  begin
     id 3 
     name ltibia
     direction 0.34202 -0.939693 0   
     length 7.21536   
     axis 0 0 20   XYZ
    dof rx
    limits (-10.0 170.0)
  end
  begin
     id 4 
     name lfoot
     direction 0.0489572 -0.134509 0.989702   
     length 1.61313   
     axis -90 7.62852e-016 20   XYZ
    dof rx rz
    limits (-45.0 90.0)
           (-70.0 20.0)
  end
  begin
     id 5 
     name ltoes
     direction 1.53451e-011 -4.21692e-011 1   
     length 0.823104   
     axis -90 7.62852e-016 20   XYZ
    dof rx
    limits (-90.0 20.0)
  end
  begin
     id 6 
     name rhipjoint
     direction -0.746398 -0.615468 0.253157   
     length 2.59446  
     axis 0 0 0  XYZ 
  end
  begin
     id 7 
     name rfemur
     direction -0.34202 -0.939693 0   
     length 6.7075   
     axis 0 0 -20   XYZ
    dof rx ry rz
    limits (-160.0 20.0)
           (-70.0 70.0)
           (-70.0 60.0)
  end
  begin
     id 8 
     name rtibia
     direction -0.34202 -0.939693 0   
     length 7.27262   
     axis 0 0 -20   XYZ
    dof rx
    limits (-10.0 170.0)
 end
 begin
     id 9 
     name rfoot
     direction -0.0455203 -0.125066 0.991104   
     length 1.91095  
     axis -90 -7.62852e-016 -20   XYZ
    dof rx rz
    limits (-45.0 90.0)
           (-20.0 70.0)
  end
  begin
     id 10 
     name rtoes
     direction -1.53601e-011 -4.21913e-011 1   
     length 0.969037   
     axis -90 -7.62852e-016 -20   XYZ
    dof rx
    limits (-90.0 20.0)
  end
  begin
     id 11 
     name lowerback
     direction 0.0181546 0.999122 -0.0377542   
     length 1.99916   
     axis 0 0 0   XYZ
    dof rx ry rz
    limits (-20.0 45.0)
           (-30.0 30.0)
           (-30.0 30.0)
  end
  begin
     id 12 
     name upperback
     direction 0.0203486 0.99589 0.0882534   
     length 1.951   
     axis 0 0 0   XYZ
    dof rx ry rz
    limits (-20.0 45.0)
           (-30.0 30.0)
           (-30.0 30.0)
  end
  begin
     id 13 
     name thorax
     direction 0.0131685 0.994241 0.106355   
     length 1.97461   
     axis 0 0 0   XYZ
    dof rx ry rz
    limits (-20.0 45.0)
           (-30.0 30.0)
           (-30.0 30.0)
  end
  begin
     id 14 
     name lowerneck
     direction -0.0281395 0.999325 0.023617   
     length 1.7959   
     axis 0 0 0   XYZ
    dof rx ry rz
    limits (-20.0 45.0)
           (-30.0 30.0)
           (-30.0 30.0)
  end
  begin
     id 15 
     name upperneck
     direction 0.0288721 0.991984 -0.123019   
     length 1.79917   
     axis 0 0 0   XYZ
    dof rx ry rz
    limits (-20.0 45.0)
           (-30.0 30.0)
           (-30.0 30.0)
  end
  begin
     id 16
     name head
     direction 0.0133797 0.998944 -0.0439492  
     length 1.80902  
     axis 0 0 0   XYZ
    dof rx ry rz
    limits (-20.0 45.0)
           (-30.0 30.0)
           (-30.0 30.0)
  end
  begin
     id 17 
     name lclavicle
     direction 0.919195 0.377107 0.113449  
     length 3.17815  
     axis 0 0 0   XYZ
    dof ry rz
    limits (-20.0 10.0)
           (0.0 20.0)
  end
  begin
     id 18 
     name lhumerus
     direction 1 -4.48959e-011 2.13129e-027   
     length 4.84137   
     axis 180 -30 -90   XYZ
    dof rx ry rz
    limits (-60.0 90.0)
           (-90.0 90.0)
           (-90.0 90.0)
  end
  begin
     id 19
     name lradius
     direction 1 -4.48957e-011 -6.30627e-028   
     length 3.2452   
     axis 180 -30 -90   XYZ
    dof rx
    limits (-10.0 170.0)
  end
  begin
     id 20
     name lwrist
     direction 1 -4.4901e-011 9.13299e-027   
     length 1.6226   
     axis -6.84618e-015 90 90   XYZ
    dof ry
    limits (-180.0 0.0)
 end
  begin
     id 21 
     name lhand
     direction 1 -4.48816e-011 1.82293e-026   
     length 0.521221   
     axis -1.16502e-014 90 90   XYZ
    dof rx rz
    limits (-90.0 90.0)
           (-45.0 45.0)
  end
  begin
     id 22 
     name lfingers
     direction 1 -4.49108e-011 3.65687e-026   
     length 0.420221   
     axis -2.33008e-014 90 90   XYZ
    dof rx
    limits (0.0 90.0)
  end
  begin
     id 23
     name lthumb
     direction 0.707107 -6.34943e-011 0.707107   
     length 0.603356   
     axis -90 45 5.69224e-014   XYZ
    dof rx rz
    limits (-45.0 45.0)
           (-45.0 45.0)
  end
  begin
     id 24 
     name rclavicle
     direction -0.90847 0.38596 0.160368   
     length 3.12973  
     axis 0 0 0   XYZ 
    dof ry rz
    limits (-10.0 20.0)
           (-20.0 0.0)
  end
  begin
     id 25 
     name rhumerus
     direction -1 -4.48974e-011 4.47268e-028  
     length 4.72284   
     axis 180 30 90   XYZ
    dof rx ry rz
    limits (-90.0 60.0)
           (-90.0 90.0)
           (-90.0 90.0)
  end
  begin
     id 26 
     name rradius
     direction -1 -4.48969e-011 3.43203e-027   
     length 3.23459   
     axis 180 30 90   XYZ
    dof rx
    limits (-10.0 170.0)
  end
  begin
     id 27 
     name rwrist
     direction -1 -4.48969e-011 9.12911e-027   
     length 1.6173   
     axis -6.84618e-015 -90 -90   XYZ
    dof ry
    limits (-180.0 0.0)
  end
  begin
     id 28
     name rhand
     direction -1 -4.49194e-011 1.83006e-026   
     length 0.307416   
     axis -1.16502e-014 -90 -90   XYZ
    dof rx rz
    limits (-90.0 90.0)
           (-45.0 45.0)
  end
  begin
     id 29
     name rfingers
     direction -1 -4.48423e-011 3.63103e-026   
     length 0.247847   
     axis -2.33008e-014 -90 -90   XYZ
    dof rx
    limits (0.0 90.0)
  end
  begin
     id 30
     name rthumb
     direction -0.707107 -6.34802e-011 0.707107   
     length 0.35586   
     axis -90 -45 -5.69224e-014   XYZ
    dof rx rz
    limits (-45.0 45.0)
           (-45.0 45.0)
  end
:hierarchy
  begin
    root lhipjoint rhipjoint lowerback
    lhipjoint lfemur
    lfemur ltibia
    ltibia lfoot
    lfoot ltoes
    rhipjoint rfemur
    rfemur rtibia
    rtibia rfoot
    rfoot rtoes
    lowerback upperback
    upperback thorax
    thorax lowerneck lclavicle rclavicle
    lowerneck upperneck
    upperneck head
    lclavicle lhumerus
    lhumerus lradius
    lradius lwrist
    lwrist lhand lthumb
    lhand lfingers
    rclavicle rhumerus
    rhumerus rradius
    rradius rwrist
    rwrist rhand rthumb
    rhand rfingers
  end

#!OML:ASF \\Waltz\H\Terrain\Patient Classification 1\Animal1\Tuesday\Animal1.ASF
:FULLY-SPECIFIED
:DEGREES
696
root -0.772189 14.6709 -1.68672 22.1523 -25.3319 -2.04225
lowerback 35.096 -0.856101 -0.21211
upperback 1.72215 -1.09274 0.964264
thorax -16.0513 -0.453061 1.67213
lowerneck -12.6809 4.52739 -2.16085
upperneck -12.8831 6.44295 3.15808
head -2.18925 3.23752 1.48788
rclavicle -3.20043e-014 1.09332e-014
rhumerus 3.98742 28.9475 -88.5287
rradius 104.37
rwrist 20.6544
rhand 8.53196 2.40909
rfingers 7.12502
rthumb 33.7327 -24.4336
lclavicle -3.20043e-014 1.09332e-014
lhumerus -12.943 -29.5999 96.8083
lradius 92.8934
lwrist -60.7429
lhand 23.9894 59.665
lfingers 7.12502
lthumb 48.2317 81.769
rfemur -66.7857 11.7294 21.0887
rtibia 60.103
rfoot -14.1578 -5.45656
rtoes -0.37727
lfemur -74.365 -14.1436 -2.89192
ltibia 91.0732
lfoot 31.6654 -9.27476
ltoes 30.9799
697
root -0.75201 14.6441 -1.68841 22.0541 -25.4316 -2.1551
lowerback 35.1977 -0.692941 -0.240068
upperback 1.75905 -0.894104 0.984971
thorax -16.0534 -0.366738 1.62275
lowerneck -12.6362 4.38903 -2.7652
upperneck -12.9522 6.3484 3.44028
head -2.2507 3.21433 1.68169
rclavicle -1.78906e-015 3.10104e-014
rhumerus 4.15223 28.8255 -88.1241
rradius 104.434
rwrist 20.4082
rhand 9.13824 2.35616
rfingers 7.12502
rthumb 34.3085 -24.3586
lclavicle -1.78906e-015 3.10104e-014
lhumerus -13.0385 -29.4498 97.1907
lradius 93.2067
lwrist -60.768
lhand 24.6461 59.5465
lfingers 7.12502
lthumb 48.836 81.3596
rfemur -66.8549 11.73 21.195
rtibia 60.3576
rfoot -14.26 -5.27048
rtoes 1.52264
lfemur -74.4586 -14.0382 -3.05213
ltibia 91.4675
lfoot 30.2372 -8.83602
ltoes 29.7827
698
root -0.733392 14.6089 -1.69915 22.2673 -25.3505 -2.27216
lowerback 34.9781 -0.64661 -0.374617
upperback 1.81928 -0.886845 0.994463
thorax -15.8897 -0.35613 1.69845
lowerneck -12.6967 4.4093 -2.72301
upperneck -13.1743 6.36486 3.2856
head -2.30894 3.22166 1.62344
rclavicle 3.3197e-014 1.25234e-014
rhumerus 4.54331 28.8964 -87.8943
rradius 104.418
rwrist 20.2914
rhand 9.46881 2.41165
rfingers 7.12502
rthumb 34.6224 -24.2318
lclavicle 3.3197e-014 1.25234e-014
lhumerus -13.0472 -29.2425 97.3087
lradius 93.5911
lwrist -60.628
lhand 25.2669 60.0013
lfingers 7.12502
lthumb 49.4061 81.5304
rfemur -67.3251 11.5892 21.3533
rtibia 60.6773
rfoot -14.3641 -5.28474
rtoes 1.73997
lfemur -75.1051 -13.8688 -3.12428
ltibia 91.9297
lfoot 29.335 -9.58167
ltoes 23.4262
699
root -0.71326 14.5948 -1.69507 21.9402 -25.3466 -2.46403
lowerback 35.3058 -0.656475 -0.467778
upperback 2.01339 -0.950305 0.942381
thorax -15.7888 -0.382923 1.72033
lowerneck -12.4606 4.57288 -2.35697
upperneck -13.7556 6.52581 2.91071
head -2.52178 3.28412 1.42891
rclavicle -2.32578e-014 4.09496e-014
rhumerus 4.91236 29.1317 -87.8744
rradius 104.485
rwrist 20.1207
rhand 11.4503 1.43745
rfingers 7.12502
rthumb 36.5006 -24.7545
lclavicle -2.32578e-014 4.09496e-014
lhumerus -13.008 -28.9379 97.2469
lradius 93.9338
lwrist -60.4342
lhand 25.0815 60.696
lfingers 7.12502
lthumb 49.236 82.3108
rfemur -66.97 11.4888 21.6361
rtibia 60.9087
rfoot -14.5968 -5.32706
rtoes 1.11069
lfemur -74.9535 -13.974 -3.34073
ltibia 92.2756
lfoot 29.3068 -10.5683
ltoes 21.0068
700
root -0.694086 14.576 -1.69969 21.6821 -25.3993 -2.49353
lowerback 35.4419 -0.515862 -0.617065
upperback 2.14663 -0.842489 0.894159
thorax -15.6866 -0.331816 1.69945
lowerneck -12.2377 4.59585 -2.42985
upperneck -14.144 6.56282 2.78905
head -2.6909 3.30493 1.39312
rclavicle 2.72335e-014 -6.04305e-014
rhumerus 5.14557 29.0248 -87.6666
rradius 104.583
rwrist 19.9712
rhand 8.84208 1.44873
rfingers 7.12502
rthumb 34.0273 -25.329
lclavicle 2.72335e-014 -6.04305e-014
lhumerus -13.0115 -28.9118 97.4657
lradius 94.1317
lwrist -60.5767
lhand 24.7714 61.0702
lfingers 7.12502
lthumb 48.9512 82.8267
rfemur -66.8618 11.404 21.7263
rtibia 61.1307
rfoot -14.7573 -5.0234
rtoes 2.66788
lfemur -75.0551 -14.0611 -3.51404
ltibia 92.627
lfoot 30.0016 -10.4584
ltoes 23.8374
701
root -0.677791 14.5592 -1.70421 21.4178 -25.4824 -2.71855
lowerback 35.6512 -0.348064 -0.609761
upperback 2.31337 -0.642713 0.8368
thorax -15.5781 -0.252984 1.54388
lowerneck -12.3676 4.50753 -2.68114
upperneck -14.2111 6.48413 2.90345
head -2.70503 3.2777 1.4758
rclavicle -3.57812e-015 -2.78299e-014
rhumerus 5.71568 28.8334 -87.2442
rradius 104.466
rwrist 19.9437
rhand 13.5514 0.477994
rfingers 7.12502
rthumb 38.4864 -25.1872
lclavicle -3.57812e-015 -2.78299e-014
lhumerus -12.878 -28.9104 97.551
lradius 94.2768
lwrist -60.7133
lhand 25.0546 61.0826
lfingers 7.12502
lthumb 49.2113 82.7098
rfemur -66.6087 11.4288 22.0164
rtibia 61.2576
rfoot -14.92 -4.62375
rtoes 5.21336
lfemur -75.0477 -14.0298 -3.54678
ltibia 93.017
lfoot 30.7192 -9.66563
ltoes 25.8443
702
root -0.6666 14.5481 -1.70937 21.1189 -25.5196 -3.10767
lowerback 36.0372 -0.272162 -0.563754
upperback 2.45765 -0.542842 0.794997
thorax -15.5631 -0.217996 1.4307
lowerneck -12.1934 4.47399 -2.76473
upperneck -14.49 6.4469 2.84658
head -2.83006 3.26207 1.4648
rclavicle -1.43125e-014 1.55052e-014
rhumerus 6.49624 29.0752 -86.9009
rradius 104.098
rwrist 19.8881
rhand 14.0683 0.102852
rfingers 7.12502
rthumb 38.9739 -25.4246
lclavicle -1.43125e-014 1.55052e-014
lhumerus -12.8871 -28.5765 97.5349
lradius 94.7202
lwrist -60.8776
lhand 25.6623 61.3882
lfingers 7.12502
lthumb 49.7685 82.7316
rfemur -66.1529 11.4997 22.5038
rtibia 61.3403
rfoot -14.8694 -4.38418
rtoes 5.84316
lfemur -74.7904 -13.9037 -3.54884
ltibia 93.3384
lfoot 31.1984 -8.50197
ltoes 27.6661
703
root -0.654062 14.534 -1.71735 20.9318 -25.5907 -3.43037
lowerback 36.3407 -0.236769 -0.669298
upperback 2.58152 -0.563001 0.698433
thorax -15.5341 -0.225809 1.39143
lowerneck -12.1828 4.53381 -2.66397
upperneck -14.6667 6.51778 2.80939
head -2.89051 3.29229 1.43416
rclavicle 1.31198e-014 1.11319e-014
rhumerus 7.13648 29.5623 -86.8853
rradius 103.873
rwrist 19.8413
rhand 13.7912 -0.313072
rfingers 7.12502
rthumb 38.7127 -25.9148
lclavicle 1.31198e-014 1.11319e-014
lhumerus -12.8143 -28.0148 97.324
lradius 95.3126
lwrist -61.2056
lhand 26.1939 61.4316
lfingers 7.12502
lthumb 50.2549 82.5194
rfemur -65.8685 11.5627 22.9151
rtibia 61.4301
rfoot -14.6536 -4.13319
rtoes 6.54699
lfemur -74.7283 -13.6934 -3.6266
ltibia 93.6646
lfoot 31.9054 -7.55027
ltoes 29.6894
704
root -0.635992 14.5116 -1.72211 20.9028 -25.726 -3.7233
lowerback 36.4056 -0.244854 -0.815409
upperback 2.80635 -0.681862 0.441094
thorax -15.289 -0.280856 1.2382
lowerneck -12.8361 4.74405 -2.21813
upperneck -14.5936 6.76166 2.84552
head -2.75032 3.39601 1.38878
rclavicle 1.86858e-014 2.78299e-014
rhumerus 7.80014 30.0293 -87.1681
rradius 104.043
rwrist 19.7211
rhand 14.6315 -0.89507
rfingers 7.12502
rthumb 39.5047 -26.2686
lclavicle 1.86858e-014 2.78299e-014
lhumerus -12.3281 -27.4666 96.6194
lradius 95.5863
lwrist -61.2245
lhand 26.0629 61.1333
lfingers 7.12502
lthumb 50.1352 82.2848
rfemur -65.8482 11.6102 23.2614
rtibia 61.5986
rfoot -14.6386 -3.89143
rtoes 8.27044
lfemur -74.9242 -13.4581 -3.68974
ltibia 94.0325
lfoot 32.6886 -7.81352
ltoes 29.8894
705
root -0.615072 14.4851 -1.72473 20.8319 -25.8334 -3.81942
lowerback 36.3253 -0.356734 -0.993658
upperback 3.0693 -0.97226 -0.00374186
thorax -14.9427 -0.413602 0.971392
lowerneck -13.6068 5.11396 -1.30928
upperneck -14.5369 7.13646 2.6307
head -2.57173 3.54683 1.19029
rclavicle -1.59028e-014 -6.36111e-015
rhumerus 8.34651 30.5566 -87.7543
rradius 104.423
rwrist 19.8066
rhand 15.5225 -1.80393
rfingers 7.12502
rthumb 40.3433 -26.9255
lclavicle -1.59028e-014 -6.36111e-015
lhumerus -11.8449 -26.8601 95.6156
lradius 95.7962
lwrist -61.1317
lhand 25.519 60.9305
lfingers 7.12502
lthumb 49.6373 82.3416
rfemur -65.977 11.564 23.4095
rtibia 61.8969
rfoot -14.673 -3.85077
rtoes 8.79125
lfemur -75.0982 -13.3688 -3.90545
ltibia 94.3114
lfoot 33.716 -7.3473
ltoes 31.2271
706
root -0.594798 14.4608 -1.73131 20.5894 -25.9049 -3.68389
lowerback 36.3925 -0.13573 -1.34308
upperback 3.13309 -0.845526 -0.0708107
thorax -14.8914 -0.341941 1.02908
lowerneck -13.4408 4.99151 -1.59333
upperneck -14.8252 7.00876 2.57501
head -2.7034 3.49566 1.21066
rclavicle -2.82274e-014 1.51076e-014
rhumerus 8.23308 30.5742 -87.5639
rradius 104.843
rwrist 20.2467
rhand 15.7701 -2.2193
rfingers 7.12502
rthumb 40.576 -27.269
lclavicle -2.82274e-014 1.51076e-014
lhumerus -11.8691 -26.4742 95.93
lradius 96.2743
lwrist -61.297
lhand 25.8556 60.6357
lfingers 7.12502
lthumb 49.9455 81.887
rfemur -66.0675 11.5001 23.3305
rtibia 62.2695
rfoot -14.6216 -4.02393
rtoes 8.68744
lfemur -75.1715 -13.417 -4.37624
ltibia 94.5456
lfoot 34.7757 -7.12452
ltoes 30.8416
707
root -0.579664 14.4396 -1.73968 20.2524 -25.8931 -3.71087
lowerback 36.8519 0.0489205 -1.47692
upperback 3.09754 -0.698251 -0.191183
thorax -14.998 -0.274268 0.899886
lowerneck -13.1394 4.82673 -1.85847
upperneck -15.2365 6.83326 2.63351
head -2.90393 3.41628 1.2608
rclavicle -5.32743e-014 7.95139e-015
rhumerus 8.29768 30.3222 -87.411
rradius 105.026
rwrist 20.6976
rhand 17.215 -2.63702
rfingers 7.12502
rthumb 41.9324 -27.2497
lclavicle -5.32743e-014 7.95139e-015
lhumerus -11.9686 -26.1398 96.2115
lradius 96.8452
lwrist -61.6631
lhand 27.0973 60.4844
lfingers 7.12502
lthumb 51.0794 81.1214
rfemur -65.9128 11.5021 23.4175
rtibia 62.6423
rfoot -14.7058 -4.08694
rtoes 10.3875
lfemur -75.0446 -13.4906 -4.73969
ltibia 94.8067
lfoot 35.1295 -8.21995
ltoes 26.6288
708
root -0.57123 14.4154 -1.74868 20.0783 -25.6868 -4.02974
lowerback 37.0251 0.237209 -1.33423
upperback 3.26357 -0.410343 -0.190669
thorax -14.8753 -0.162793 0.696936
lowerneck -12.8679 4.66604 -2.13394
upperneck -15.7993 6.65044 2.52516
head -3.14766 3.33768 1.25847
rclavicle 6.20208e-014 7.95139e-015
rhumerus 8.83685 29.909 -86.8212
rradius 105.071
rwrist 20.5177
rhand 19.3132 -2.95508
rfingers 7.12502
rthumb 43.8947 -26.8771
lclavicle 6.20208e-014 7.95139e-015
lhumerus -11.8206 -26.0843 96.6189
lradius 97.201
lwrist -62.1192
lhand 28.0463 60.505
lfingers 7.12502
lthumb 51.9422 80.6449
rfemur -65.7509 11.5228 23.7988
rtibia 63.0012
rfoot -14.8019 -4.22672
rtoes 11.8737
lfemur -75.0162 -13.5673 -4.61304
ltibia 95.1474
lfoot 35.3059 -7.67614
ltoes 26.6356
